<?xml version="1.0" encoding="UTF-8" standalone="no"?>
<svg
   width="2000"
   height="300"
   preserveAspectRatio="xMinYMin"
   viewBox="0 0 2000 300"
   version="1.0"
   fill-rule="evenodd"
   id="svg4"
   sodipodi:docname="Irbis_Logo_full.svg"
   xml:space="preserve"
   inkscape:version="1.4.2 (f4327f4, 2025-05-13)"
   xmlns:inkscape="http://www.inkscape.org/namespaces/inkscape"
   xmlns:sodipodi="http://sodipodi.sourceforge.net/DTD/sodipodi-0.dtd"
   xmlns="http://www.w3.org/2000/svg"
   xmlns:svg="http://www.w3.org/2000/svg"
   xmlns:rdf="http://www.w3.org/1999/02/22-rdf-syntax-ns#"
   xmlns:cc="http://creativecommons.org/ns#"
   xmlns:dc="http://purl.org/dc/elements/1.1/"><defs
     id="defs4" /><sodipodi:namedview
     id="namedview4"
     pagecolor="#ffffff"
     bordercolor="#000000"
     borderopacity="0.25"
     inkscape:showpageshadow="2"
     inkscape:pageopacity="0.0"
     inkscape:pagecheckerboard="0"
     inkscape:deskcolor="#d1d1d1"
     showgrid="true"
     inkscape:zoom="0.60375"
     inkscape:cx="525.05176"
     inkscape:cy="279.91718"
     inkscape:window-width="1440"
     inkscape:window-height="830"
     inkscape:window-x="-6"
     inkscape:window-y="-6"
     inkscape:window-maximized="1"
     inkscape:current-layer="group"><inkscape:grid
       id="grid4"
       units="px"
       originx="0"
       originy="0"
       spacingx="1"
       spacingy="1"
       empcolor="#0099e5"
       empopacity="0.30196078"
       color="#0099e5"
       opacity="0.14901961"
       empspacing="5"
       enabled="true"
       visible="true" /></sodipodi:namedview><title
     id="title1">...</title><desc
     id="desc1">...</desc><clipPath
     id="clip"><rect
       x="0"
       y="0"
       width="800"
       height="300"
       id="rect1" /></clipPath><g
     id="group"
     transform="matrix(1,0,0,-1,0,300)"
     clip-path="url(#clip)"><text
       x="393.27124"
       y="-156.74948"
       style="font-size:80px;font-family:Helvetica-Bold;fill:#0c192e;stroke:none"
       transform="scale(1,-1)"
       id="text2">IRBIS</text><text
       x="393.27124"
       y="-86.749481"
       style="font-size:50px;font-family:Helvetica;fill:#bf9e59;stroke:none"
       transform="scale(1,-1)"
       id="text3">P A R T N E R S</text><path
       id="path1"
       style="fill:#0f1a2e;fill-opacity:1;fill-rule:nonzero;stroke:#0f1a2e;stroke-width:0.181482;stroke-dasharray:none;stroke-opacity:1"
       d="m 217.62226,254.02112 c -2.87915,0.007 -4.25217,-0.31252 -6.24219,-1.45424 -5.03368,-2.88788 -7.64181,-9.57215 -7.66017,-19.63244 -0.01,-5.47969 -0.21273,-4.91263 4.20421,-11.74798 4.13709,-6.40226 7.49875,-11.81006 9.98311,-16.05925 l 1.63594,-2.79828 1.30377,2.44229 c 3.80809,7.13541 9.13612,13.17313 14.21651,16.10965 1.68399,0.97337 3.43494,1.6838 5.85024,2.37414 6.13923,1.75474 8.75924,3.79893 9.53927,7.44227 0.37954,1.77281 -0.23729,4.95371 -1.16796,6.02208 -0.219,0.25141 -1.09871,0.7492 -1.95512,1.10624 -3.21061,1.33852 -7.11296,3.73379 -13.47581,8.27106 -7.31617,5.21709 -9.26085,6.37996 -12.56725,7.51528 -0.99457,0.34151 -1.55616,0.40399 -3.66455,0.40918 z m 75.53316,-20.70879 0.73781,-0.41996 c 0.40584,-0.23096 3.02041,-1.51019 5.81025,-2.84243 2.78984,-1.33225 5.81947,-2.89466 6.7325,-3.47204 4.35287,-2.75258 6.99467,-5.8455 9.01584,-10.55482 l 0.76013,-1.77061 11.80494,-7.55908 c 6.49275,-4.15746 11.84646,-7.5612 11.89715,-7.56392 0.19601,-0.0104 -5.10913,4.90268 -9.77595,9.05364 -2.68835,2.39125 -5.58585,4.98016 -6.43853,5.75335 l -1.5502,1.40591 -1.1856,2.78854 c -1.33567,3.14197 -2.05092,4.18358 -3.88358,5.65601 -3.80575,3.05772 -8.55565,5.45535 -14.60992,7.37447 -2.50436,0.79387 -6.59844,1.77669 -8.4848,2.03656 z M 201.5407,221.89707 c -0.16035,0.002 -3.78179,-2.84741 -5.96047,-4.68917 -7.19631,-6.08347 -15.50686,-14.38618 -21.76283,-21.74239 -9.72825,-11.4391 -18.96564,-25.27376 -24.06598,-36.04317 l -0.80012,-1.68891 0.3145,-1.60407 c 0.55058,-2.8095 1.93804,-8.78498 2.89359,-12.46172 2.88227,-11.09042 6.34393,-20.27977 9.99753,-26.54037 1.57254,-2.69463 1.46701,-2.62491 1.95655,-1.29293 2.89775,7.88435 5.14573,12.5292 8.58712,17.744 4.8451,7.34185 9.88114,12.10213 17.62275,16.65756 3.25217,1.91367 6.54336,3.60396 6.40827,3.29125 -2.83819,-6.57024 -4.25326,-11.4792 -5.3365,-18.51508 -0.60004,-3.89735 -0.59855,-10.72015 0.003,-14.10612 1.73211,-9.75155 5.74833,-18.43136 12.81799,-27.701181 14.74392,-19.332446 43.31056,-38.555066 79.90129,-53.766665 2.53621,-1.054363 4.63198,-1.897278 4.65742,-1.872821 0.0986,0.09471 0.4288,8.327492 0.58255,14.521579 0.16833,6.780984 0.006,15.082247 -0.3509,17.97796 -1.27088,10.303112 -4.06304,17.502967 -11.97102,30.867278 -1.32734,2.24317 -2.57351,4.4918 -2.76931,4.99684 -1.59272,4.10802 -0.51694,13.79216 2.21488,19.93875 3.04971,6.8618 6.85277,10.13678 13.55652,11.67322 3.16894,0.72629 5.18864,0.90672 11.14168,0.99639 l 5.81025,0.0876 1.93676,-1.38229 c 5.23397,-3.73536 8.89508,-5.61058 12.72719,-6.51853 2.20739,-0.52299 5.26094,-0.5171 7.34783,0.0139 5.45824,1.38886 9.94262,5.44615 10.98464,9.93877 0.35672,1.53809 0.4073,6.50632 0.0893,8.7863 l -0.20823,1.49075 0.62324,0.44012 c 0.34261,0.24214 1.37865,1.16594 2.30241,2.05291 3.5553,3.41377 6.1471,8.35814 6.70298,12.78677 0.17242,1.37369 0.11079,2.63314 -0.27849,5.68555 -0.1131,0.8868 -0.0681,1.13837 0.35125,1.958 0.63769,1.24643 2.01724,2.9911 5.47086,6.91939 3.21254,3.65397 3.50132,4.02609 3.50317,4.50909 0.003,0.62357 -1.54839,1.77564 -4.24997,3.15705 -7.69374,3.93409 -11.3223,4.08481 -15.01665,0.62474 l -1.29836,-1.21575 -0.92227,0.21485 c -1.12919,0.26314 -6.44673,1.93395 -7.83921,2.46314 -0.85734,0.32584 -0.9534,0.33642 -0.62001,0.0695 0.21697,-0.17368 2.04306,-1.60967 4.05795,-3.19147 2.0149,-1.58182 4.34676,-3.4747 5.18196,-4.20628 6.80693,-5.96243 7.8602,-10.13748 3.57268,-14.15931 -2.3317,-2.18723 -6.95752,-4.31852 -12.98298,-5.98178 -10.54608,-2.9111 -19.64285,-3.14208 -28.36169,-0.72032 -1.24248,0.34511 -2.28416,0.60342 -2.31467,0.57397 -0.12078,-0.11657 2.22389,-1.81711 3.66024,-2.6547 2.08599,-1.21642 5.36564,-2.71801 6.89425,-3.15671 2.62453,-0.75316 7.2981,-0.89538 15.3787,-0.46759 4.34991,0.23027 11.59757,0.23025 13.03414,0 l 0.76843,-0.12308 0.1333,-1.71497 c 0.0734,-0.94334 0.0847,-2.67653 0.0249,-3.85134 -0.37415,-7.34187 -3.87749,-10.59061 -11.47064,-10.63686 -6.81356,-0.0415 -16.39626,2.52254 -25.4544,6.81056 -4.50256,2.13154 -7.00967,3.76325 -14.47948,9.42529 -6.23688,4.72751 -9.73298,6.45948 -13.55723,6.71601 -1.72823,0.11594 -3.79014,-0.3061 -8.02907,-1.64302 -10.12358,-3.19288 -23.41478,-10.50097 -30.45119,-16.74342 -0.59491,-0.5278 -1.14811,-0.95953 -1.22957,-0.95953 -0.16821,0 -1.93719,2.28054 -3.31365,4.27198 -4.63004,6.69872 -7.93606,14.06164 -8.99097,20.02495 -0.57939,3.27526 -0.41047,8.94662 0.39413,13.23246 0.15326,0.81643 0.24972,1.5126 0.21399,1.54708 -0.10442,0.10076 -3.02725,-0.56533 -5.12828,-1.16883 -2.2818,-0.65541 -5.59325,-1.93573 -6.97423,-2.69641 -0.53862,-0.2967 -1.0245,-0.49583 -1.07969,-0.44256 -0.16741,0.16155 0.48008,2.9361 1.17012,5.01423 1.12925,3.4009 3.04721,6.95541 5.45646,10.11225 l 0.92515,1.21193 -0.10736,1.11076 c -0.24793,2.56201 -2.40869,7.61431 -5.42116,12.67655 -2.34704,3.94402 -8.33254,13.06556 -8.57523,13.06803 z m 90.43993,-0.38069 c -1.37223,0.0345 -3.70314,-0.0292 -5.17944,-0.14184 -3.35343,-0.25578 -16.09854,-1.593 -16.21018,-1.70073 -0.0454,-0.0438 0.13757,-0.35801 0.40638,-0.6981 1.99243,-2.52083 5.32701,-3.84123 9.70067,-3.84123 h 1.60495 l 0.62794,-0.7565 c 2.59685,-3.12872 5.53882,-5.74667 7.42529,-6.60789 0.55536,-0.25353 2.11775,-0.67176 3.47216,-0.92928 1.35442,-0.25753 3.33279,-0.74232 4.39623,-1.07738 3.2777,-1.03269 9.14414,-3.9141 15.86612,-7.79305 1.77535,-1.02447 3.2614,-1.86687 3.30248,-1.87212 0.0899,-0.0114 0.0241,0.0647 -2.29195,2.66026 -1.00463,1.12584 -3.12377,3.44874 -4.70893,5.16198 -1.58514,1.71325 -3.14684,3.47077 -3.47072,3.90556 -0.36631,0.49174 -0.87009,1.65062 -1.3326,3.06632 -0.49397,1.51195 -0.98681,2.62779 -1.46877,3.32429 -1.45439,2.10174 -5.19276,5.10727 -8.05719,6.47752 l -1.58765,0.75928 z" /></g><metadata
     id="metadata4"><rdf:RDF><cc:Work
         rdf:about=""><dc:title>...</dc:title></cc:Work></rdf:RDF></metadata></svg>
